# xmcd CD database file
#
# Track frame offsets:
#	150
#	21876
#	43455
#	69382
#	94348
#	127806
#	156616
#	174960
#	193451
#	215513
#	236335
#	254315
#	284416
#
# Disc length: 4125 seconds
#
# Revision: 0
# Processed by: cddbd v1.5.2PL0 Copyright (c) Steve Scherf et al.
# Submitted via: CDex 1.70beta2
#
DISCID=c3101b0d
DTITLE=Varios - Llego El Mejor Vol 2
DYEAR=1900
DGENRE=Salsa
TTITLE0=Vamos Hablame Ahora
TTITLE1=De Alguna Manera
TTITLE2=Omele
TTITLE3=Sabroso
TTITLE4=El Bohemio
TTITLE5=En Sueños
TTITLE6=El Licor De Tu Boquita
TTITLE7=Trago Amargo
TTITLE8=Llego El Amor
TTITLE9=Quiereme
TTITLE10=Una Chica Como Tu
TTITLE11=Rio Abajo
TTITLE12=Mujer Ajena
EXTD=
EXTT0=
EXTT1=
EXTT2=
EXTT3=
EXTT4=
EXTT5=
EXTT6=
EXTT7=
EXTT8=
EXTT9=
EXTT10=
EXTT11=
EXTT12=
PLAYORDER=
